<?xml version="1.0" encoding="UTF-8" standalone="no"?><svg xmlns="http://www.w3.org/2000/svg" xmlns:xlink="http://www.w3.org/1999/xlink" contentStyleType="text/css" height="260px" preserveAspectRatio="none" style="width:1195px;height:260px;background:#FFFFFF;" version="1.1" viewBox="0 0 1195 260" width="1195px" zoomAndPan="magnify"><defs/><g><!--MD5=[1919ef7aecc5209ad78f9ad723215264]
class Cola--><g id="elem_Cola"><rect codeLine="5" fill="#F1F1F1" height="73.1094" id="Cola" rx="2.5" ry="2.5" style="stroke:#181818;stroke-width:0.5;" width="121" x="92" y="172.5"/><ellipse cx="120.95" cy="192.8105" fill="#B4A7E5" rx="11" ry="11" style="stroke:#181818;stroke-width:1.0;"/><path d="M116.8777,188.5757 L116.8777,186.4175 L124.2571,186.4175 L124.2571,188.5757 L121.7918,188.5757 L121.7918,196.6523 L124.2571,196.6523 L124.2571,198.8105 L116.8777,198.8105 L116.8777,196.6523 L119.3431,196.6523 L119.3431,188.5757 Z " fill="#000000"/><text fill="#000000" font-family="sans-serif" font-size="12" font-style="italic" lengthAdjust="spacing" textLength="62" x="136.05" y="189.1016">«interface»</text><text fill="#000000" font-family="sans-serif" font-size="14" font-style="italic" lengthAdjust="spacing" textLength="31" x="151.55" y="205.168">Cola</text><line style="stroke:#181818;stroke-width:0.5;" x1="93" x2="212" y1="213.1211" y2="213.1211"/><line style="stroke:#181818;stroke-width:0.5;" x1="93" x2="212" y1="221.1211" y2="221.1211"/><ellipse cx="103" cy="234.8652" fill="#84BE84" rx="3" ry="3" style="stroke:#038048;stroke-width:1.0;"/><text fill="#000000" font-family="sans-serif" font-size="14" lengthAdjust="spacing" textLength="95" x="112" y="238.6563">bubble(): void</text></g><!--MD5=[dcda66dabdb739ec36f1175150e3c9d5]
class Factory--><g id="elem_Factory"><rect codeLine="8" fill="#F1F1F1" height="89.5977" id="Factory" rx="2.5" ry="2.5" style="stroke:#181818;stroke-width:0.5;" width="214" x="468.5" y="164"/><ellipse cx="542.25" cy="184.3105" fill="#B4A7E5" rx="11" ry="11" style="stroke:#181818;stroke-width:1.0;"/><path d="M538.1777,180.0757 L538.1777,177.9175 L545.5571,177.9175 L545.5571,180.0757 L543.0918,180.0757 L543.0918,188.1523 L545.5571,188.1523 L545.5571,190.3105 L538.1777,190.3105 L538.1777,188.1523 L540.6431,188.1523 L540.6431,180.0757 Z " fill="#000000"/><text fill="#000000" font-family="sans-serif" font-size="12" font-style="italic" lengthAdjust="spacing" textLength="62" x="560.75" y="180.6016">«interface»</text><text fill="#000000" font-family="sans-serif" font-size="14" font-style="italic" lengthAdjust="spacing" textLength="50" x="566.75" y="196.668">Factory</text><line style="stroke:#181818;stroke-width:0.5;" x1="469.5" x2="681.5" y1="204.6211" y2="204.6211"/><line style="stroke:#181818;stroke-width:0.5;" x1="469.5" x2="681.5" y1="212.6211" y2="212.6211"/><ellipse cx="479.5" cy="226.3652" fill="#84BE84" rx="3" ry="3" style="stroke:#038048;stroke-width:1.0;"/><text fill="#000000" font-family="sans-serif" font-size="14" lengthAdjust="spacing" textLength="122" x="488.5" y="230.1563">createCola(): Cola</text><ellipse cx="479.5" cy="242.8535" fill="#84BE84" rx="3" ry="3" style="stroke:#038048;stroke-width:1.0;"/><text fill="#000000" font-family="sans-serif" font-size="14" lengthAdjust="spacing" textLength="188" x="488.5" y="246.6445">createHamburg(): Hamburg</text></g><!--MD5=[303c6834999666837cf714e2e12c959a]
class Hamburg--><g id="elem_Hamburg"><rect codeLine="12" fill="#F1F1F1" height="73.1094" id="Hamburg" rx="2.5" ry="2.5" style="stroke:#181818;stroke-width:0.5;" width="114" x="946.5" y="172.5"/><ellipse cx="969.6" cy="192.8105" fill="#B4A7E5" rx="11" ry="11" style="stroke:#181818;stroke-width:1.0;"/><path d="M965.5277,188.5757 L965.5277,186.4175 L972.9071,186.4175 L972.9071,188.5757 L970.4418,188.5757 L970.4418,196.6523 L972.9071,196.6523 L972.9071,198.8105 L965.5277,198.8105 L965.5277,196.6523 L967.9931,196.6523 L967.9931,188.5757 Z " fill="#000000"/><text fill="#000000" font-family="sans-serif" font-size="12" font-style="italic" lengthAdjust="spacing" textLength="62" x="986.4" y="189.1016">«interface»</text><text fill="#000000" font-family="sans-serif" font-size="14" font-style="italic" lengthAdjust="spacing" textLength="64" x="985.4" y="205.168">Hamburg</text><line style="stroke:#181818;stroke-width:0.5;" x1="947.5" x2="1059.5" y1="213.1211" y2="213.1211"/><line style="stroke:#181818;stroke-width:0.5;" x1="947.5" x2="1059.5" y1="221.1211" y2="221.1211"/><ellipse cx="957.5" cy="234.8652" fill="#84BE84" rx="3" ry="3" style="stroke:#038048;stroke-width:1.0;"/><text fill="#000000" font-family="sans-serif" font-size="14" lengthAdjust="spacing" textLength="88" x="966.5" y="238.6563">steam(): void</text></g><!--MD5=[e92b5b04cd4704ea22a926e13c27e633]
class KFCCola--><g id="elem_KFCCola"><rect codeLine="15" fill="#F1F1F1" height="80.9766" id="KFCCola" rx="2.5" ry="2.5" style="stroke:#181818;stroke-width:0.5;" width="121" x="7" y="15"/><ellipse cx="35.95" cy="31" fill="#ADD1B2" rx="11" ry="11" style="stroke:#181818;stroke-width:1.0;"/><path d="M38.9231,36.6431 Q38.3421,36.9419 37.7029,37.0913 Q37.0638,37.2407 36.3582,37.2407 Q33.8514,37.2407 32.5315,35.5889 Q31.2117,33.937 31.2117,30.8159 Q31.2117,27.6865 32.5315,26.0347 Q33.8514,24.3828 36.3582,24.3828 Q37.0638,24.3828 37.7112,24.5322 Q38.3587,24.6816 38.9231,24.9805 L38.9231,27.7031 Q38.2923,27.1221 37.6988,26.8523 Q37.1053,26.5825 36.4744,26.5825 Q35.1297,26.5825 34.4449,27.6492 Q33.7601,28.7158 33.7601,30.8159 Q33.7601,32.9077 34.4449,33.9744 Q35.1297,35.041 36.4744,35.041 Q37.1053,35.041 37.6988,34.7712 Q38.2923,34.5015 38.9231,33.9204 Z " fill="#000000"/><text fill="#000000" font-family="sans-serif" font-size="14" lengthAdjust="spacing" textLength="58" x="53.05" y="36.291">KFCCola</text><line style="stroke:#181818;stroke-width:0.5;" x1="8" x2="127" y1="47" y2="47"/><line style="stroke:#181818;stroke-width:0.5;" x1="8" x2="127" y1="55" y2="55"/><ellipse cx="18" cy="68.7441" fill="#84BE84" rx="3" ry="3" style="stroke:#038048;stroke-width:1.0;"/><text fill="#000000" font-family="sans-serif" font-size="14" lengthAdjust="spacing" textLength="72" x="27" y="72.5352">KFCCola():</text><ellipse cx="18" cy="85.2324" fill="#84BE84" rx="3" ry="3" style="stroke:#038048;stroke-width:1.0;"/><text fill="#000000" font-family="sans-serif" font-size="14" lengthAdjust="spacing" textLength="95" x="27" y="89.0234">bubble(): void</text></g><!--MD5=[489ab543c04a75ee637298e915e3be15]
class KFCFactory--><g id="elem_KFCFactory"><rect codeLine="19" fill="#F1F1F1" height="97.4648" id="KFCFactory" rx="2.5" ry="2.5" style="stroke:#181818;stroke-width:0.5;" width="214" x="344.5" y="7"/><ellipse cx="408.75" cy="23" fill="#ADD1B2" rx="11" ry="11" style="stroke:#181818;stroke-width:1.0;"/><path d="M411.7231,28.6431 Q411.1421,28.9419 410.5029,29.0913 Q409.8638,29.2407 409.1582,29.2407 Q406.6514,29.2407 405.3315,27.5889 Q404.0117,25.937 404.0117,22.8159 Q404.0117,19.6865 405.3315,18.0347 Q406.6514,16.3828 409.1582,16.3828 Q409.8638,16.3828 410.5112,16.5322 Q411.1587,16.6816 411.7231,16.9805 L411.7231,19.7031 Q411.0923,19.1221 410.4988,18.8523 Q409.9053,18.5825 409.2744,18.5825 Q407.9297,18.5825 407.2449,19.6492 Q406.5601,20.7158 406.5601,22.8159 Q406.5601,24.9077 407.2449,25.9744 Q407.9297,27.041 409.2744,27.041 Q409.9053,27.041 410.4988,26.7712 Q411.0923,26.5015 411.7231,25.9204 Z " fill="#000000"/><text fill="#000000" font-family="sans-serif" font-size="14" lengthAdjust="spacing" textLength="77" x="429.25" y="28.291">KFCFactory</text><line style="stroke:#181818;stroke-width:0.5;" x1="345.5" x2="557.5" y1="39" y2="39"/><line style="stroke:#181818;stroke-width:0.5;" x1="345.5" x2="557.5" y1="47" y2="47"/><ellipse cx="355.5" cy="60.7441" fill="#84BE84" rx="3" ry="3" style="stroke:#038048;stroke-width:1.0;"/><text fill="#000000" font-family="sans-serif" font-size="14" lengthAdjust="spacing" textLength="91" x="364.5" y="64.5352">KFCFactory():</text><ellipse cx="355.5" cy="77.2324" fill="#84BE84" rx="3" ry="3" style="stroke:#038048;stroke-width:1.0;"/><text fill="#000000" font-family="sans-serif" font-size="14" lengthAdjust="spacing" textLength="122" x="364.5" y="81.0234">createCola(): Cola</text><ellipse cx="355.5" cy="93.7207" fill="#84BE84" rx="3" ry="3" style="stroke:#038048;stroke-width:1.0;"/><text fill="#000000" font-family="sans-serif" font-size="14" lengthAdjust="spacing" textLength="188" x="364.5" y="97.5117">createHamburg(): Hamburg</text></g><!--MD5=[dfe3950ba58e946c7276dececee66c2c]
class KFCHamburg--><g id="elem_KFCHamburg"><rect codeLine="24" fill="#F1F1F1" height="80.9766" id="KFCHamburg" rx="2.5" ry="2.5" style="stroke:#181818;stroke-width:0.5;" width="131" x="843" y="15"/><ellipse cx="861.6" cy="31" fill="#ADD1B2" rx="11" ry="11" style="stroke:#181818;stroke-width:1.0;"/><path d="M864.5731,36.6431 Q863.9921,36.9419 863.3529,37.0913 Q862.7138,37.2407 862.0082,37.2407 Q859.5014,37.2407 858.1815,35.5889 Q856.8617,33.937 856.8617,30.8159 Q856.8617,27.6865 858.1815,26.0347 Q859.5014,24.3828 862.0082,24.3828 Q862.7138,24.3828 863.3612,24.5322 Q864.0087,24.6816 864.5731,24.9805 L864.5731,27.7031 Q863.9423,27.1221 863.3488,26.8523 Q862.7553,26.5825 862.1244,26.5825 Q860.7797,26.5825 860.0949,27.6492 Q859.4101,28.7158 859.4101,30.8159 Q859.4101,32.9077 860.0949,33.9744 Q860.7797,35.041 862.1244,35.041 Q862.7553,35.041 863.3488,34.7712 Q863.9423,34.5015 864.5731,33.9204 Z " fill="#000000"/><text fill="#000000" font-family="sans-serif" font-size="14" lengthAdjust="spacing" textLength="91" x="876.4" y="36.291">KFCHamburg</text><line style="stroke:#181818;stroke-width:0.5;" x1="844" x2="973" y1="47" y2="47"/><line style="stroke:#181818;stroke-width:0.5;" x1="844" x2="973" y1="55" y2="55"/><ellipse cx="854" cy="68.7441" fill="#84BE84" rx="3" ry="3" style="stroke:#038048;stroke-width:1.0;"/><text fill="#000000" font-family="sans-serif" font-size="14" lengthAdjust="spacing" textLength="105" x="863" y="72.5352">KFCHamburg():</text><ellipse cx="854" cy="85.2324" fill="#84BE84" rx="3" ry="3" style="stroke:#038048;stroke-width:1.0;"/><text fill="#000000" font-family="sans-serif" font-size="14" lengthAdjust="spacing" textLength="88" x="863" y="89.0234">steam(): void</text></g><!--MD5=[c04aa9cf318f5ac7cfb30a64f7c366a7]
class McDonaldsCola--><g id="elem_McDonaldsCola"><rect codeLine="28" fill="#F1F1F1" height="80.9766" id="McDonaldsCola" rx="2.5" ry="2.5" style="stroke:#181818;stroke-width:0.5;" width="146" x="163.5" y="15"/><ellipse cx="182.1" cy="31" fill="#ADD1B2" rx="11" ry="11" style="stroke:#181818;stroke-width:1.0;"/><path d="M185.0731,36.6431 Q184.4921,36.9419 183.8529,37.0913 Q183.2138,37.2407 182.5082,37.2407 Q180.0014,37.2407 178.6815,35.5889 Q177.3617,33.937 177.3617,30.8159 Q177.3617,27.6865 178.6815,26.0347 Q180.0014,24.3828 182.5082,24.3828 Q183.2138,24.3828 183.8612,24.5322 Q184.5087,24.6816 185.0731,24.9805 L185.0731,27.7031 Q184.4423,27.1221 183.8488,26.8523 Q183.2553,26.5825 182.6244,26.5825 Q181.2797,26.5825 180.5949,27.6492 Q179.9101,28.7158 179.9101,30.8159 Q179.9101,32.9077 180.5949,33.9744 Q181.2797,35.041 182.6244,35.041 Q183.2553,35.041 183.8488,34.7712 Q184.4423,34.5015 185.0731,33.9204 Z " fill="#000000"/><text fill="#000000" font-family="sans-serif" font-size="14" lengthAdjust="spacing" textLength="106" x="196.9" y="36.291">McDonaldsCola</text><line style="stroke:#181818;stroke-width:0.5;" x1="164.5" x2="308.5" y1="47" y2="47"/><line style="stroke:#181818;stroke-width:0.5;" x1="164.5" x2="308.5" y1="55" y2="55"/><ellipse cx="174.5" cy="68.7441" fill="#84BE84" rx="3" ry="3" style="stroke:#038048;stroke-width:1.0;"/><text fill="#000000" font-family="sans-serif" font-size="14" lengthAdjust="spacing" textLength="120" x="183.5" y="72.5352">McDonaldsCola():</text><ellipse cx="174.5" cy="85.2324" fill="#84BE84" rx="3" ry="3" style="stroke:#038048;stroke-width:1.0;"/><text fill="#000000" font-family="sans-serif" font-size="14" lengthAdjust="spacing" textLength="95" x="183.5" y="89.0234">bubble(): void</text></g><!--MD5=[72ffa9edbcfb7d1853103c52a88ede2f]
class McDonaldsFactory--><g id="elem_McDonaldsFactory"><rect codeLine="32" fill="#F1F1F1" height="97.4648" id="McDonaldsFactory" rx="2.5" ry="2.5" style="stroke:#181818;stroke-width:0.5;" width="214" x="593.5" y="7"/><ellipse cx="634.15" cy="23" fill="#ADD1B2" rx="11" ry="11" style="stroke:#181818;stroke-width:1.0;"/><path d="M637.1231,28.6431 Q636.5421,28.9419 635.9029,29.0913 Q635.2638,29.2407 634.5582,29.2407 Q632.0514,29.2407 630.7315,27.5889 Q629.4117,25.937 629.4117,22.8159 Q629.4117,19.6865 630.7315,18.0347 Q632.0514,16.3828 634.5582,16.3828 Q635.2638,16.3828 635.9112,16.5322 Q636.5587,16.6816 637.1231,16.9805 L637.1231,19.7031 Q636.4923,19.1221 635.8988,18.8523 Q635.3053,18.5825 634.6744,18.5825 Q633.3297,18.5825 632.6449,19.6492 Q631.9601,20.7158 631.9601,22.8159 Q631.9601,24.9077 632.6449,25.9744 Q633.3297,27.041 634.6744,27.041 Q635.3053,27.041 635.8988,26.7712 Q636.4923,26.5015 637.1231,25.9204 Z " fill="#000000"/><text fill="#000000" font-family="sans-serif" font-size="14" lengthAdjust="spacing" textLength="125" x="653.85" y="28.291">McDonaldsFactory</text><line style="stroke:#181818;stroke-width:0.5;" x1="594.5" x2="806.5" y1="39" y2="39"/><line style="stroke:#181818;stroke-width:0.5;" x1="594.5" x2="806.5" y1="47" y2="47"/><ellipse cx="604.5" cy="60.7441" fill="#84BE84" rx="3" ry="3" style="stroke:#038048;stroke-width:1.0;"/><text fill="#000000" font-family="sans-serif" font-size="14" lengthAdjust="spacing" textLength="139" x="613.5" y="64.5352">McDonaldsFactory():</text><ellipse cx="604.5" cy="77.2324" fill="#84BE84" rx="3" ry="3" style="stroke:#038048;stroke-width:1.0;"/><text fill="#000000" font-family="sans-serif" font-size="14" lengthAdjust="spacing" textLength="188" x="613.5" y="81.0234">createHamburg(): Hamburg</text><ellipse cx="604.5" cy="93.7207" fill="#84BE84" rx="3" ry="3" style="stroke:#038048;stroke-width:1.0;"/><text fill="#000000" font-family="sans-serif" font-size="14" lengthAdjust="spacing" textLength="122" x="613.5" y="97.5117">createCola(): Cola</text></g><!--MD5=[8a8a98daf4fed1493014a16b31e7ef07]
class McDonaldsHamburg--><g id="elem_McDonaldsHamburg"><rect codeLine="37" fill="#F1F1F1" height="80.9766" id="McDonaldsHamburg" rx="2.5" ry="2.5" style="stroke:#181818;stroke-width:0.5;" width="179" x="1009" y="15"/><ellipse cx="1027.6" cy="31" fill="#ADD1B2" rx="11" ry="11" style="stroke:#181818;stroke-width:1.0;"/><path d="M1030.5731,36.6431 Q1029.9921,36.9419 1029.3529,37.0913 Q1028.7138,37.2407 1028.0082,37.2407 Q1025.5014,37.2407 1024.1815,35.5889 Q1022.8617,33.937 1022.8617,30.8159 Q1022.8617,27.6865 1024.1815,26.0347 Q1025.5014,24.3828 1028.0082,24.3828 Q1028.7138,24.3828 1029.3612,24.5322 Q1030.0087,24.6816 1030.5731,24.9805 L1030.5731,27.7031 Q1029.9423,27.1221 1029.3488,26.8523 Q1028.7553,26.5825 1028.1244,26.5825 Q1026.7797,26.5825 1026.0949,27.6492 Q1025.4101,28.7158 1025.4101,30.8159 Q1025.4101,32.9077 1026.0949,33.9744 Q1026.7797,35.041 1028.1244,35.041 Q1028.7553,35.041 1029.3488,34.7712 Q1029.9423,34.5015 1030.5731,33.9204 Z " fill="#000000"/><text fill="#000000" font-family="sans-serif" font-size="14" lengthAdjust="spacing" textLength="139" x="1042.4" y="36.291">McDonaldsHamburg</text><line style="stroke:#181818;stroke-width:0.5;" x1="1010" x2="1187" y1="47" y2="47"/><line style="stroke:#181818;stroke-width:0.5;" x1="1010" x2="1187" y1="55" y2="55"/><ellipse cx="1020" cy="68.7441" fill="#84BE84" rx="3" ry="3" style="stroke:#038048;stroke-width:1.0;"/><text fill="#000000" font-family="sans-serif" font-size="14" lengthAdjust="spacing" textLength="153" x="1029" y="72.5352">McDonaldsHamburg():</text><ellipse cx="1020" cy="85.2324" fill="#84BE84" rx="3" ry="3" style="stroke:#038048;stroke-width:1.0;"/><text fill="#000000" font-family="sans-serif" font-size="14" lengthAdjust="spacing" textLength="88" x="1029" y="89.0234">steam(): void</text></g><!--MD5=[851c25924b4ccd076809b90c09d25f8c]
link KFCCola to Cola--><g id="link_KFCCola_Cola"><path codeLine="42" d="M110,96.23 C110,96.23 110,152.28 110,152.28 " fill="none" id="KFCCola-to-Cola" style="stroke:#008200;stroke-width:1.0;stroke-dasharray:7.0,7.0;"/><polygon fill="none" points="117,152.28,110,172.28,103,152.28,117,152.28" style="stroke:#008200;stroke-width:1.0;"/></g><!--MD5=[f3eebef6f8bcbd2c8596aa1d0af043a4]
link KFCFactory to Factory--><g id="link_KFCFactory_Factory"><path codeLine="43" d="M513.5,104.07 C513.5,104.07 513.5,143.88 513.5,143.88 " fill="none" id="KFCFactory-to-Factory" style="stroke:#008200;stroke-width:1.0;stroke-dasharray:7.0,7.0;"/><polygon fill="none" points="520.5,143.88,513.5,163.88,506.5,143.88,520.5,143.88" style="stroke:#008200;stroke-width:1.0;"/></g><!--MD5=[a08e841fb13d5019e4978caa74a8fb6f]
link KFCHamburg to Hamburg--><g id="link_KFCHamburg_Hamburg"><path codeLine="44" d="M960.25,96.23 C960.25,96.23 960.25,152.28 960.25,152.28 " fill="none" id="KFCHamburg-to-Hamburg" style="stroke:#008200;stroke-width:1.0;stroke-dasharray:7.0,7.0;"/><polygon fill="none" points="967.25,152.28,960.25,172.28,953.25,152.28,967.25,152.28" style="stroke:#008200;stroke-width:1.0;"/></g><!--MD5=[65b9493f6ffba80a217ac51150752bc9]
link McDonaldsCola to Cola--><g id="link_McDonaldsCola_Cola"><path codeLine="45" d="M188.25,96.23 C188.25,96.23 188.25,152.28 188.25,152.28 " fill="none" id="McDonaldsCola-to-Cola" style="stroke:#008200;stroke-width:1.0;stroke-dasharray:7.0,7.0;"/><polygon fill="none" points="195.25,152.28,188.25,172.28,181.25,152.28,195.25,152.28" style="stroke:#008200;stroke-width:1.0;"/></g><!--MD5=[760c7bdcdfc44b549bac3f16f1b50618]
link McDonaldsFactory to Factory--><g id="link_McDonaldsFactory_Factory"><path codeLine="46" d="M638,104.07 C638,104.07 638,143.88 638,143.88 " fill="none" id="McDonaldsFactory-to-Factory" style="stroke:#008200;stroke-width:1.0;stroke-dasharray:7.0,7.0;"/><polygon fill="none" points="645,143.88,638,163.88,631,143.88,645,143.88" style="stroke:#008200;stroke-width:1.0;"/></g><!--MD5=[76b57da8d1badf204a08e4f4f1614606]
link McDonaldsHamburg to Hamburg--><g id="link_McDonaldsHamburg_Hamburg"><path codeLine="47" d="M1034.75,96.23 C1034.75,96.23 1034.75,152.28 1034.75,152.28 " fill="none" id="McDonaldsHamburg-to-Hamburg" style="stroke:#008200;stroke-width:1.0;stroke-dasharray:7.0,7.0;"/><polygon fill="none" points="1041.75,152.28,1034.75,172.28,1027.75,152.28,1041.75,152.28" style="stroke:#008200;stroke-width:1.0;"/></g><!--MD5=[713da3c4b18ae21e1253a59605a98964]
@startuml

top to bottom direction
skinparam linetype ortho

interface Cola << interface >> {
  + bubble(): void
}
interface Factory << interface >> {
  + createCola(): Cola
  + createHamburg(): Hamburg
}
interface Hamburg << interface >> {
  + steam(): void
}
class KFCCola {
  + KFCCola(): 
  + bubble(): void
}
class KFCFactory {
  + KFCFactory(): 
  + createCola(): Cola
  + createHamburg(): Hamburg
}
class KFCHamburg {
  + KFCHamburg(): 
  + steam(): void
}
class McDonaldsCola {
  + McDonaldsCola(): 
  + bubble(): void
}
class McDonaldsFactory {
  + McDonaldsFactory(): 
  + createHamburg(): Hamburg
  + createCola(): Cola
}
class McDonaldsHamburg {
  + McDonaldsHamburg(): 
  + steam(): void
}

KFCCola           -[#008200,dashed]-^  Cola             
KFCFactory        -[#008200,dashed]-^  Factory          
KFCHamburg        -[#008200,dashed]-^  Hamburg          
McDonaldsCola     -[#008200,dashed]-^  Cola             
McDonaldsFactory  -[#008200,dashed]-^  Factory          
McDonaldsHamburg  -[#008200,dashed]-^  Hamburg          
@enduml

PlantUML version 1.2022.7(Tue Aug 23 01:01:30 CST 2022)
(GPL source distribution)
Java Runtime: OpenJDK Runtime Environment
JVM: OpenJDK 64-Bit Server VM
Default Encoding: UTF-8
Language: en
Country: CN
--></g></svg>